<svg width="18" height="18" fill="none" xmlns="http://www.w3.org/2000/svg"><path fill-rule="evenodd" clip-rule="evenodd" d="M14.152 6.623v1.655h-1.64v1.326h1.64v1.655h1.313V9.604h1.64V8.278h-1.64V6.623h-1.313Z" fill="#2D9964"/><path fill-rule="evenodd" clip-rule="evenodd" d="M14.014 6.485h1.59V8.14h1.64v1.602h-1.64v1.655h-1.59V9.742h-1.64V8.14h1.64V6.485Zm.277.277v1.655h-1.64v1.048h1.64v1.655h1.035V9.465h1.64V8.417h-1.64V6.762h-1.035Z" fill="#2D9964"/><path fill-rule="evenodd" clip-rule="evenodd" d="M.83 1.523V16.36h14.635v-3.312h-1.313v1.987H2.143V2.848h12.01v1.92h1.312V1.523H.83Z" fill="#2D9964"/><path fill-rule="evenodd" clip-rule="evenodd" d="M.692 1.385h14.911v3.522h-1.59v-1.92H2.283v11.91h11.732V12.91h1.59v3.588H.691V1.385Zm.277.276v14.56h14.357v-3.034h-1.035v1.986H2.005V2.71H14.29V4.63h1.035V1.661H.97Z" fill="#2D9964"/><path fill-rule="evenodd" clip-rule="evenodd" d="M9.249 8.889a.282.282 0 0 1-.13.195.752.752 0 0 1-.193.092c-.129.044-.27.093-.42.15-.15.056-.29.106-.42.15a9.52 9.52 0 0 0-.44.157 1.185 1.185 0 0 0-.297.181 1.13 1.13 0 0 0-.213.268.797.797 0 0 0-.097.411c0 .331.078.576.232.737.156.161.445.241.867.241.43 0 .723-.084.879-.255.155-.17.232-.41.232-.723V8.89ZM8.138 5.432c.758 0 1.313.15 1.666.45.354.3.53.677.53 1.129v3.86c0 .157-.027.329-.083.516a1.187 1.187 0 0 1-.33.514 1.9 1.9 0 0 1-.672.392c-.285.104-.655.156-1.111.156-.457 0-.827-.052-1.112-.156a1.903 1.903 0 0 1-.672-.392 1.18 1.18 0 0 1-.33-.514 1.792 1.792 0 0 1-.083-.516v-.613c0-.33.084-.63.252-.9.167-.268.42-.47.717-.573.155-.053.331-.113.53-.184l.575-.202c.185-.064.346-.123.484-.175.138-.052.225-.083.259-.091l.136-.073a.593.593 0 0 0 .162-.136c.05-.06.096-.13.135-.209a.61.61 0 0 0 .058-.274v-.248a.766.766 0 0 0-.052-.267.659.659 0 0 0-.18-.254.948.948 0 0 0-.343-.19 1.706 1.706 0 0 0-.536-.072c-.431 0-.722.09-.872.268a.967.967 0 0 0-.227.646H5.941V7.01c-.002-.211.04-.42.122-.613a1.28 1.28 0 0 1 .395-.502c.18-.144.409-.257.685-.34a3.51 3.51 0 0 1 .995-.124Z" fill="#2D9964"/><path fill-rule="evenodd" clip-rule="evenodd" d="M8.138 5.57c-.379 0-.696.041-.955.119a1.9 1.9 0 0 0-.64.315c-.164.13-.28.28-.352.448a1.397 1.397 0 0 0-.112.558v.175h.829c.024-.225.107-.425.252-.596m-.057-1.166c.292-.087.638-.13 1.035-.13.771 0 1.366.153 1.756.484.383.326.58.74.58 1.234v3.86c0 .173-.032.359-.09.555l-.001.003c-.07.22-.197.418-.367.573a2.038 2.038 0 0 1-.72.421c-.305.111-.693.165-1.158.165-.466 0-.854-.054-1.16-.164a2.044 2.044 0 0 1-.719-.422 1.319 1.319 0 0 1-.366-.573 1.93 1.93 0 0 1-.09-.556v-.615c0-.355.09-.68.272-.973.184-.295.462-.518.79-.63l.039-.014c.146-.05.308-.105.49-.17l.575-.202c.185-.065.345-.123.481-.175.12-.045.208-.077.257-.091.04-.02.08-.042.119-.063a.455.455 0 0 0 .123-.104l.002-.002a.867.867 0 0 0 .115-.179.472.472 0 0 0 .044-.21v-.252a.627.627 0 0 0-.042-.217.52.52 0 0 0-.142-.199.81.81 0 0 0-.292-.162 1.568 1.568 0 0 0-.493-.066h-.003c-.423 0-.658.09-.767.218a.829.829 0 0 0-.193.557v.138H5.802v-.451c-.001-.23.044-.457.134-.667.092-.215.239-.4.436-.557.198-.157.442-.276.731-.364Zm1.035.148c.744 0 1.26.148 1.577.417l-1.577-.417Zm1.577.417c.323.275.481.613.481 1.023l-.481-1.023Zm-1.58.284c.196-.005.391.022.579.078.144.044.278.118.393.217a.797.797 0 0 1 .219.307l.001.003c.04.105.06.212.06.316v.246a.75.75 0 0 1-.07.335l-.002.003a1.145 1.145 0 0 1-.153.236.732.732 0 0 1-.2.168h-.001c-.046.026-.093.051-.14.075l-.014.007-.015.004a3.482 3.482 0 0 0-.244.086c-.139.053-.302.112-.487.177l-.574.202c-.184.065-.348.121-.494.171l-.038.013a1.234 1.234 0 0 0-.645.515 1.532 1.532 0 0 0-.23.827v.612c.002.161.028.321.077.475.055.175.156.331.29.454l.003.003c.146.14.351.261.624.361.264.096.616.148 1.064.148.447 0 .8-.052 1.063-.148.273-.1.478-.221.624-.362l.003-.002c.134-.123.235-.279.29-.453.053-.177.078-.335.078-.475v-3.86m-2.06-.739c-.44 0-.785.09-.976.317l.976-.317Zm.954 2.653a.144.144 0 0 0 .022-.058l.137.022h.138v1.604c0 .334-.082.614-.268.817-.197.215-.543.3-.981.3-.43 0-.77-.08-.966-.284-.19-.196-.27-.482-.271-.83a.935.935 0 0 1 .114-.48l.002-.005c.07-.118.15-.219.24-.3l.003-.003c.1-.084.213-.152.333-.203l.004-.001c.14-.055.289-.107.445-.16.128-.043.266-.092.415-.148.153-.057.295-.107.424-.151l.004-.002a.614.614 0 0 0 .158-.074l.003-.002a.141.141 0 0 0 .044-.042Zm.02.325a.89.89 0 0 1-.141.057c-.128.044-.266.093-.414.149-.152.056-.294.107-.425.15a9.422 9.422 0 0 0-.431.155c-.094.04-.181.093-.26.158a.994.994 0 0 0-.182.231.658.658 0 0 0-.08.338v.005c0 .313.074.516.194.64.114.119.352.2.767.2.422 0 .663-.085.777-.21.124-.136.195-.339.195-.63V9.25Z" fill="#2D9964"/></svg>