<svg width="18" height="18" fill="none" xmlns="http://www.w3.org/2000/svg"><g clip-path="url(#a)" stroke="#2D9964" stroke-width="1.246" stroke-miterlimit="10" stroke-linecap="square"><path d="M10.53.667H7.497c-.838 0-1.518.678-1.518 1.515v10.606c0 .836.68 1.515 1.518 1.515h3.035c.838 0 1.517-.679 1.517-1.515V2.182c0-.837-.68-1.515-1.517-1.515ZM2.223 11.235a5.302 5.302 0 0 1-1.152-5.78 5.303 5.303 0 0 1 1.152-1.72M3.832 5.342a3.03 3.03 0 0 0 0 4.286M15.804 11.235a5.301 5.301 0 0 0 1.151-5.78 5.302 5.302 0 0 0-1.151-1.72M14.194 5.342a3.03 3.03 0 0 1 0 4.286M6.737 4.454h.758M10.53 4.454h.759M6.737 10.515h.758M10.53 10.515h.759M6.737 7.485h.758M10.53 7.485h.759M10.15 15.06v2.273M7.875 15.06v2.273"/></g><defs><clipPath id="a"><path fill="#fff" d="M0 0h18v18H0z"/></clipPath></defs></svg>