<svg width="18" height="18" fill="none" xmlns="http://www.w3.org/2000/svg"><path fill-rule="evenodd" clip-rule="evenodd" d="M7.615 0H6.577v1.44h-.692v.36H4.5v1.08h1.385v.36h.692v1.083c-1.13.036-1.912.426-2.417.973a2.614 2.614 0 0 0-.698 1.724V18h7.269V7.02c0-.981-.599-1.636-1.192-2.03a4.636 4.636 0 0 0-1.665-.663L7.83 4.32h-.216V3.24h.693v-.36h2.25c.551 0 1.39.177 2.076.69.66.494 1.212 1.322 1.212 2.73v5.94h-1.038v3.24h3.115v-3.24h-1.038V6.3c0-1.76-.717-2.912-1.644-3.606a4.644 4.644 0 0 0-2.683-.894h-2.25v-.36h-.693V0ZM4.91 6.044c.3-.326.848-.644 1.841-.644h.993c.304.058.811.217 1.237.5.445.295.712.66.712 1.12v3.06H4.5V7.02c0-.235.096-.637.41-.976ZM4.5 13.32v-2.16h5.192v2.16H4.5Zm9.346 1.08v-1.08h1.039v1.08h-1.039ZM4.5 16.92V14.4h5.192v2.52H4.5Z" fill="#2D9964"/></svg>