<svg width="18" height="18" fill="none" xmlns="http://www.w3.org/2000/svg"><g clip-path="url(#a)"><g clip-path="url(#b)" fill="#2D9964"><path d="M8.191 9.306c-.27 1.756-1.92 3.016-3.95 3.016C1.784 12.322 0 10.536 0 8.066c0-.305.03-1.88 1.22-3.075.54-.54 1.1-.786 1.36-.9.606-.26 1.22-.365 4.926-.365h.21c.42.524.84 1.05 1.26 1.57-1.22-.005-2.895.02-4.69.12-.33.02-.826.055-1.316.38-.68.45-1.095 1.26-1.095 2.265 0 1.55 1.005 2.646 2.41 2.646 1.006 0 1.911-.69 2.156-1.631l1.75.23Z"/><path d="M10.516 8.762c.066 1.105 1.085 1.955 2.346 1.955 1.495 0 2.57-1.115 2.57-2.646 0-.93-.379-1.7-1.005-2.165-.455-.34-.925-.415-1.505-.48a25.196 25.196 0 0 0-3.945-.12c-.42-.526-.84-1.05-1.26-1.57a131.5 131.5 0 0 1 2.36 0c1.37.01 2.06.034 2.41.05.595.024.89.04.995.05.395.055 1.865.265 2.9 1.525.846 1.03.926 2.23.926 2.71 0 2.465-1.84 4.256-4.4 4.256-2.681 0-4.457-2.01-4.197-4.79h4.266v1.23h-2.46V8.76Zm3.732-5.141a5.863 5.863 0 0 0-.4-.126c-.091-.024-.16-.045-.25-.06a3.66 3.66 0 0 0-.701-.06c-.075 0-.175-.005-.3 0V0h1.65v3.62Z"/><path d="M9.057 14.923c.024.125.155.74.754 1.1 0 0 .446.24 1.006.245.065 0 .92-.03 1.48-.666.425-.484.455-1.06.465-1.3.005-.064 0-.07-.01-.685-.005-.315-.01-.57-.01-.74.21.02.465.025.76 0 .23-.02.435-.06.595-.1v1.52c-.005.25-.03 1.006-.51 1.735a3.08 3.08 0 0 1-1.095 1 3.558 3.558 0 0 1-1.81.44 3.52 3.52 0 0 1-1.046-.219 3.279 3.279 0 0 1-1.665-1.43 2.916 2.916 0 0 1-.345-.92c.475.004.955.014 1.43.02Z" stroke="#2D9964" stroke-width=".313" stroke-miterlimit="10"/><path d="M9.807 13.422h-2.75c-.396 0-.716.37-.716.826v.154c0 .455.32.825.715.825h2.745c.396 0 .715-.37.715-.825v-.155c.006-.455-.315-.825-.71-.825Z"/></g></g><defs><clipPath id="a"><path fill="#fff" d="M0 0h18v18H0z"/></clipPath><clipPath id="b"><path fill="#fff" d="M0 0h17.308v17.973H0z"/></clipPath></defs></svg>